<?xml version="1.0" encoding="utf-8"?>
<!-- Generator: Adobe Illustrator 27.5.0, SVG Export Plug-In . SVG Version: 6.00 Build 0)  -->
<svg version="1.1" xmlns="http://www.w3.org/2000/svg" xmlns:xlink="http://www.w3.org/1999/xlink" x="0px" y="0px"
	 viewBox="0 0 32 32" style="enable-background:new 0 0 32 32;" xml:space="preserve">
<style type="text/css">
	.st0{fill:none;stroke:#27AAE1;stroke-width:8;stroke-miterlimit:10;}
	.st1{display:none;}
	.st2{display:inline;}
</style>
<g id="Layer_1">
	
		<ellipse transform="matrix(0.3647 -0.9311 0.9311 0.3647 -1.3991 30.405)" class="st0" cx="21.58" cy="16.23" rx="11.24" ry="4.84"/>
</g>
<g id="Layer_2">
</g>
<g id="Layer_3">
	<path d="M0.4,3.08C0.9,3.44,1.47,3.93,2.19,4.54c0.56,0.48,1.58,1.41,3,3.35C5.2,7.91,5.22,7.94,5.24,7.96l9.95,0.09
		c0.82-1.26,1.62-2.23,2.25-2.98c0.59-0.71,1.15-1.32,1.66-1.85L0.4,3.08z"/>
	<path d="M6.15,9.21c1.36,2.08,2.15,3.8,2.47,4.55c0.05,0.11,0.09,0.21,0.13,0.32l3.55,0.04c0.34-1.06,0.8-2.27,1.45-3.58
		c0.22-0.45,0.45-0.86,0.68-1.25L6.15,9.21z"/>
	<path d="M9.11,15.12c0.69,1.86,1.05,3.41,1.24,4.41c0.03,0.16,0.05,0.3,0.08,0.45l0.57,0.01c0.17-1.22,0.31-2.09,0.56-3.15
		c0.11-0.46,0.25-1.04,0.43-1.68L9.11,15.12z"/>
</g>
<g id="Layer_4" class="st1">
	<path class="st2" d="M20.08,2.16c-0.74-0.07-1.49,0.79-2.86,2.36c-0.45,0.51-1.25,1.5-2.32,3.53c-1.47,2.78-2.2,5.14-2.47,6.07
		c-0.73,2.52-1,4.62-1.11,5.86c-0.09,1-0.12,1.84-0.12,2.48c0.51-0.03,8.18-0.68,11.16-6.71C25.21,9.95,22.15,2.37,20.08,2.16z"/>
	<path class="st2" d="M0.98,2.39c0.73-0.13,1.54,0.68,3.03,2.15c0.48,0.48,1.35,1.41,2.57,3.35c1.67,2.66,2.57,4.97,2.91,5.87
		c0.91,2.46,1.33,4.54,1.53,5.77c0.16,0.99,0.25,1.83,0.3,2.46c-0.51,0-8.21-0.08-11.61-5.89C-3.57,10.52-1.07,2.74,0.98,2.39z"/>
</g>
</svg>
